<?xml version="1.0" encoding="UTF-8"?>
<svg xmlns="http://www.w3.org/2000/svg" width="1105.92" height="1105.92" viewBox="0 0 1105.92 1105.92" role="img" aria-label="Folded figure">
  <rect width="100%" height="100%" fill="#ffffff"/>
  <path d="M 40.96 40.96 L 552.96 552.96 L 765.04 340.88 Z" fill="#ffffff" stroke="#ffffff" stroke-width="0.50"/>
  <path d="M 765.04 765.04 L 616.09 765.04 L 1064.96 1064.96 Z" fill="#ffffff" stroke="#ffffff" stroke-width="0.50"/>
  <path d="M 765.04 765.04 L 595.14 595.14 L 595.14 751.04 L 616.09 765.04 Z" fill="#ffffff" stroke="#ffffff" stroke-width="0.50"/>
  <path d="M 595.14 595.14 L 544.57 717.25 L 595.14 751.04 Z" fill="#ffffff" stroke="#ffffff" stroke-width="0.50"/>
  <path d="M 552.96 552.96 L 451.12 654.80 L 595.14 595.14 Z" fill="#ffffff" stroke="#ffffff" stroke-width="0.50"/>
  <path d="M 552.96 552.96 L 595.14 595.14 L 765.04 765.04 L 765.04 340.88 Z" fill="#ffffff" stroke="#ffffff" stroke-width="0.50"/>
  <path d="M 765.04 765.04 L 1064.96 1064.96 L 765.04 340.88 Z" fill="#ffffff" stroke="#ffffff" stroke-width="0.50"/>
  <path d="M 595.14 595.14 L 451.12 654.80 L 544.57 717.25 Z" fill="#ffffff" stroke="#ffffff" stroke-width="0.50"/>
  <path d="M 595.14 870.36 L 595.14 765.04 L 524.77 765.04 Z" fill="#ffffff" stroke="#ffffff" stroke-width="0.50"/>
  <path d="M 616.09 765.04 L 595.14 765.04 L 595.14 870.36 L 1064.96 1064.96 Z" fill="#ffffff" stroke="#ffffff" stroke-width="0.50"/>
  <path d="M 451.12 654.80 L 524.77 765.04 L 544.57 717.25 Z" fill="#ffffff" stroke="#ffffff" stroke-width="0.50"/>
  <path d="M 595.14 751.04 L 544.57 717.25 L 524.77 765.04 L 595.14 765.04 Z" fill="#ffffff" stroke="#ffffff" stroke-width="0.50"/>
  <path d="M 616.09 765.04 L 595.14 751.04 L 595.14 765.04 Z" fill="#ffffff" stroke="#ffffff" stroke-width="0.50"/>
  <path d="M 40.96 40.96 L 552.96 552.96" fill="none" stroke="#231f20" stroke-width="1.20" stroke-linecap="round" stroke-linejoin="round"/>
  <path d="M 595.14 595.14 L 595.14 751.04" fill="none" stroke="#231f20" stroke-width="1.20" stroke-linecap="round" stroke-linejoin="round"/>
  <path d="M 595.14 595.14 L 552.96 552.96" fill="none" stroke="#231f20" stroke-width="1.20" stroke-linecap="round" stroke-linejoin="round"/>
  <path d="M 765.04 340.88 L 40.96 40.96" fill="none" stroke="#231f20" stroke-width="1.20" stroke-linecap="round" stroke-linejoin="round"/>
  <path d="M 765.04 340.88 L 1064.96 1064.96" fill="none" stroke="#231f20" stroke-width="1.20" stroke-linecap="round" stroke-linejoin="round"/>
  <path d="M 595.14 870.36 L 524.77 765.04" fill="none" stroke="#231f20" stroke-width="1.20" stroke-linecap="round" stroke-linejoin="round"/>
  <path d="M 595.14 870.36 L 1064.96 1064.96" fill="none" stroke="#231f20" stroke-width="1.20" stroke-linecap="round" stroke-linejoin="round"/>
  <path d="M 524.77 765.04 L 451.12 654.80" fill="none" stroke="#231f20" stroke-width="1.20" stroke-linecap="round" stroke-linejoin="round"/>
  <path d="M 524.77 765.04 L 544.57 717.25" fill="none" stroke="#231f20" stroke-width="1.20" stroke-linecap="round" stroke-linejoin="round"/>
  <path d="M 451.12 654.80 L 552.96 552.96" fill="none" stroke="#231f20" stroke-width="1.20" stroke-linecap="round" stroke-linejoin="round"/>
  <path d="M 1064.96 1064.96 L 765.04 765.04" fill="none" stroke="#231f20" stroke-width="1.20" stroke-linecap="round" stroke-linejoin="round"/>
  <path d="M 765.04 765.04 L 595.14 595.14" fill="none" stroke="#231f20" stroke-width="1.20" stroke-linecap="round" stroke-linejoin="round"/>
  <path d="M 595.14 870.36 L 595.14 765.04" fill="none" stroke="#231f20" stroke-width="1.20" stroke-linecap="round" stroke-linejoin="round"/>
  <path d="M 595.14 765.04 L 595.14 751.04" fill="none" stroke="#231f20" stroke-width="1.20" stroke-linecap="round" stroke-linejoin="round"/>
  <path d="M 595.14 595.14 L 544.57 717.25" fill="none" stroke="#231f20" stroke-width="1.20" stroke-linecap="round" stroke-linejoin="round"/>
</svg>